<svg xmlns="http://www.w3.org/2000/svg" viewBox="0 0 32 32" xmlns:v="https://vecta.io/nano"><path d="M29 13a1 1 0 0 0-1 1v1a1 1 0 0 1-1 1H5a1 1 0 0 1-1-1V7a1 1 0 0 1 1-1h3a1 1 0 0 0 0-2H5a3 3 0 0 0-3 3v8a3 3 0 0 0 3 3h22a3 3 0 0 0 3-3v-1a1 1 0 0 0-1-1zm-2-9H12a1 1 0 0 0 0 2h15a1 1 0 0 1 1 1v3a1 1 0 0 0 2 0V7a3 3 0 0 0-3-3zm-2 3H7a1 1 0 0 0 0 2h18a1 1 0 0 0 0-2zm1 4a1 1 0 0 0-1-1H7a1 1 0 0 0 0 2h18a1 1 0 0 0 1-1zm-1 4a1 1 0 0 0 0-2h0a1 1 0 1 0 0 2zm-3-2a1 1 0 1 0 1 1 1 1 0 0 0-1-1zM6 19a1 1 0 0 0-1 1v2a1 1 0 0 0 2 0v-2a1 1 0 0 0-1-1zm10 0a1 1 0 0 0-1 1v7a1 1 0 0 0 2 0v-7a1 1 0 0 0-1-1zm10 0a1 1 0 0 0-1 1v2a1 1 0 0 0 2 0v-2a1 1 0 0 0-1-1zm-5 0a1 1 0 0 0-1 1v4a1 1 0 0 0 2 0v-4a1 1 0 0 0-1-1zm-10 0a1 1 0 0 0-1 1v4a1 1 0 0 0 2 0v-4a1 1 0 0 0-1-1z"/></svg>