<svg xmlns="http://www.w3.org/2000/svg" viewBox="0 0 128 128" xmlns:v="https://vecta.io/nano"><path d="M102.828 27.247a1.75 1.75 0 0 0 1.75-1.75v-2.675a1.75 1.75 0 1 0-3.5 0V25.5a1.75 1.75 0 0 0 1.75 1.747zM96.895 30.7h2.675a1.75 1.75 0 0 0 0-3.5h-2.675a1.75 1.75 0 0 0 0 3.5zm6.128-.241a1.75 1.75 0 0 0-1.75 1.75v2.675a1.75 1.75 0 1 0 3.5 0v-2.675a1.75 1.75 0 0 0-1.75-1.75zm7.684-1.703a1.75 1.75 0 0 0-1.75-1.75h-2.675a1.75 1.75 0 0 0 0 3.5h2.675a1.75 1.75 0 0 0 1.75-1.75zM23.662 85.727a1.75 1.75 0 0 0 1.75-1.75V81.3a1.75 1.75 0 0 0-3.5 0v2.675a1.75 1.75 0 0 0 1.75 1.752zm-3.262-.046h-2.672a1.75 1.75 0 0 0 0 3.5H20.4a1.75 1.75 0 0 0 0-3.5zm3.456 3.258a1.75 1.75 0 0 0-1.75 1.75v2.675a1.75 1.75 0 0 0 3.5 0v-2.675a1.75 1.75 0 0 0-1.75-1.75zm5.934-3.453h-2.675a1.75 1.75 0 0 0 0 3.5h2.675a1.75 1.75 0 0 0 0-3.5zm54.08-40.798c-3.77 1.318-4.87 7.27-2.57 13.847 2 5.729 5.734 9.477 9.152 9.477a4.485 4.485 0 0 0 1.49-.252h0c3.767-1.318 4.873-7.271 2.573-13.847s-6.87-10.545-10.645-9.225zm6.914 19.768c-1.351.47-4.426-2.052-6.183-7.076s-.922-8.917.425-9.388a1.065 1.065 0 0 1 .351-.056c1.476 0 4.214 2.505 5.832 7.132 1.757 5.025.922 8.916-.425 9.388zm1.678-25.348a10.877 10.877 0 0 0-6.491-2.138h-.963v-3.3h1.75a1.75 1.75 0 0 0 1.75-1.75V15.409a1.75 1.75 0 0 0-1.75-1.75H67.282a1.75 1.75 0 0 0-1.75 1.75v16.509a1.75 1.75 0 0 0 1.75 1.75h1.75v3.3h-.985a10.875 10.875 0 0 0-6.491 2.138 25.557 25.557 0 0 0-10.265 18.738l-.006.064-.071 1.843V106.2a8.154 8.154 0 0 0 8.145 8.145h35.3a8.154 8.154 0 0 0 8.141-8.145V59.751a25.583 25.583 0 0 0-10.338-20.643zm-23.43-21.949h15.977v13.009H69.032zm3.5 16.509h8.977v3.3h-8.977zm-17.745 24.36v-.054h14.24v32.574H54.714v-30.8l.073-1.72zM99.3 106.2a4.65 4.65 0 0 1-4.645 4.645h-35.3a4.65 4.65 0 0 1-4.645-4.645V94.048h16.072a1.75 1.75 0 0 0 1.75-1.75V56.224a1.75 1.75 0 0 0-1.75-1.75H55.339a22.121 22.121 0 0 1 8.316-12.565 7.353 7.353 0 0 1 4.392-1.439h17.925a7.353 7.353 0 0 1 4.392 1.439h0A22.113 22.113 0 0 1 99.3 59.751zM46.78 33.668a1.75 1.75 0 0 0 0-3.5h-8.021v-14.01a1.75 1.75 0 0 0-3.5 0v14.01h-8.313a1.75 1.75 0 1 0 0 3.5h8.312v3.3h-8.312a1.75 1.75 0 1 0 0 3.5h8.312v3.3h-8.312a1.75 1.75 0 1 0 0 3.5h8.312v3.3h-8.312a1.75 1.75 0 1 0 0 3.5h8.312v3.3h-8.312a1.75 1.75 0 1 0 0 3.5h8.312v3.3h-8.312a1.75 1.75 0 1 0 0 3.5h8.312v44.913a1.75 1.75 0 0 0 3.5 0V67.678h8.022a1.75 1.75 0 0 0 0-3.5h-8.021v-3.3h8.021a1.75 1.75 0 0 0 0-3.5h-8.021v-3.3h8.021a1.75 1.75 0 0 0 0-3.5h-8.021v-3.3h8.021a1.75 1.75 0 0 0 0-3.5h-8.021v-3.3h8.021a1.75 1.75 0 0 0 0-3.5h-8.021v-3.3zM31.1 27.226a1.75 1.75 0 0 0 3.058-1.7l-5.683-10.219a1.75 1.75 0 1 0-3.058 1.7zm9.141.674a1.748 1.748 0 0 0 2.38-.678l5.688-10.217a1.75 1.75 0 1 0-3.058-1.7l-5.688 10.219a1.749 1.749 0 0 0 .678 2.376z"/></svg>