<svg xmlns="http://www.w3.org/2000/svg" xml:space="preserve" width="655.359" height="655.359" style="shape-rendering:geometricPrecision;text-rendering:geometricPrecision;image-rendering:optimizeQuality;fill-rule:evenodd;clip-rule:evenodd" viewBox="0 0 6.827 6.827"><defs><style>.fil1{fill:none}.fil2{fill:#fffffe;fill-rule:nonzero}</style></defs><path style="fill:#424242" d="M0 0h6.827v6.827H0z"/><g id="Layer_x0020_1"><g id="_377763664"><path id="_377764072" class="fil1" d="M0 0h6.827v6.827H0z"/><path id="_377763880" class="fil1" d="M.853.853h5.12v5.12H.853z"/></g><g id="_377763496"><path id="_377763856" class="fil2" d="M3.413 1.067a2.34 2.34 0 0 0-1.659.687 2.34 2.34 0 0 0-.687 1.66c0 .647.262 1.234.687 1.659a2.34 2.34 0 0 0 1.66.687 2.34 2.34 0 0 0 1.659-.687 2.34 2.34 0 0 0 .687-1.66 2.34 2.34 0 0 0-.687-1.659 2.34 2.34 0 0 0-1.66-.687zm-1.81.536a2.552 2.552 0 0 1 1.81-.75c.707 0 1.347.287 1.81.75.464.463.75 1.103.75 1.81 0 .707-.286 1.347-.75 1.81a2.552 2.552 0 0 1-1.81.75 2.552 2.552 0 0 1-1.81-.75 2.552 2.552 0 0 1-.75-1.81c0-.707.287-1.347.75-1.81z"/><path id="_377764216" class="fil2" d="m3.75 3.82.7-1.268-1.374.455-.699 1.268 1.374-.455zm1.017-1.403-.85 1.541-.02.037-.04.013-1.67.554-.258.085.13-.237.85-1.542.02-.036.04-.013 1.671-.554.258-.086-.131.238z"/><path id="_377764048" class="fil2" d="m3.653 3.202.006.007a.318.318 0 0 1-.034.444l-.007.006a.318.318 0 0 1-.444-.034l-.006-.007a.318.318 0 0 1 .034-.444l.007-.006a.318.318 0 0 1 .444.034zm-.133.221a.107.107 0 0 0-.175-.092.107.107 0 0 0-.014.15.107.107 0 0 0 .15.015.107.107 0 0 0 .039-.073z"/><path id="_377763328" class="fil2" d="M3.52.96v.747h-.213V.96z"/><path id="_377763064" class="fil2" d="M3.52 5.12v.747h-.213V5.12z"/><path id="_377763040" class="fil2" d="M5.867 3.52H5.12v-.213h.747z"/><path id="_377763016" class="fil2" d="M1.707 3.52H.96v-.213h.747z"/></g></g></svg>