<svg xmlns="http://www.w3.org/2000/svg" width="64" height="64" xmlns:v="https://vecta.io/nano"><path d="M64 45.501a1 1 0 0 0-1-1h-2V31.505a1 1 0 0 0-1-1h-4.002V26.36c1.723-.447 3.004-2.001 3.004-3.861l-.003-1.981c.003-.02 0-.025 0-.03v-4.985a1 1 0 1 0-2 0v4h-1v-4a1 1 0 1 0-2 0v4h-1v-4a1 1 0 1 0-2 0v4.985c-.003.02 0 .025 0 .03v1.966c-.003 1.874 1.277 3.428 2.999 3.875v4.146H50a1 1 0 0 0-1 1v12.996h-1.015v-4.992a1 1 0 0 0-1-1h-.989V15.496a1 1 0 0 0-1-1h0a5.01 5.01 0 0 0-5.001 5v19.013h-.998V15.496a1 1 0 0 0-1-1h-.001c-2.757 0-5 2.243-5 5v19.013h-.998V15.496a1 1 0 0 0-1-1h0a5.01 5.01 0 0 0-5.001 5v19.013h-.998V15.496a1 1 0 0 0-1-1h-.001c-2.757 0-5 2.243-5 5v19.013H18V15.496a1 1 0 0 0-1-1h0a5.01 5.01 0 0 0-5.001 5v19.013h-.998V15.496a1 1 0 0 0-1-1H10c-2.757 0-5 2.243-5 5v19.013h-.997a1 1 0 0 0-1 1v4.992H1a1 1 0 0 0-1 1 4.01 4.01 0 0 0 4.003 4.003H60c.01 0 .019-.006.029-.006C62.222 49.482 64 47.697 64 45.501zM52.997 22.509l.002-1.005h4v.995c-.003 1.11-.898 2.003-2 2.003s-1.997-.894-2.002-1.993zM51 32.505h8v11.996h-8V32.505zm-9.005-13.009c0-1.303.839-2.402 2.001-2.816v21.829h-2.001V19.496zm-6.999 0c0-1.303.839-2.402 2.001-2.816v21.829h-2.001V19.496zm-6.999 0c0-1.303.839-2.402 2.001-2.816v21.829h-2.001V19.496zm-6.999 0c0-1.303.839-2.402 2.001-2.816v21.829h-2.001V19.496zm-6.999 0c0-1.303.839-2.402 2.001-2.816v21.829h-2.001V19.496zm-6.999 0c0-1.303.839-2.402 2.001-2.816v21.829H7V19.496zM5.003 40.509h40.982v3.992H5.003v-3.992zM60 47.501l-55.997.003c-.738 0-1.378-.406-1.726-1.003H50h10 1.722c-.347.595-.986 1-1.722 1z"/></svg>