<svg xmlns="http://www.w3.org/2000/svg" width="64" height="64" xml:space="preserve"><path d="M36.999 18.006c-2.206 0-4 1.794-4 4v17.996c0 2.206 1.794 4 4 4s4-1.794 4-4V22.006c0-2.206-1.794-4-4-4zm0 2c1.103 0 2 .897 2 2v7.996h-4v-7.996c0-1.103.897-2 2-2zm0 21.996c-1.103 0-2-.897-2-2v-8h4v8c0 1.102-.897 2-2 2z"/><path d="M7.996 46.01h9.001v1.988h-4.493c-1.379 0-2.5 1.121-2.5 2.5s1.121 2.5 2.5 2.5h4.493v4.004a.998.998 0 0 0-.992.998v3c0 1.654 1.346 3 3 3h35.994c1.654 0 3-1.346 3-3v-3A.999.999 0 0 0 57 57V16.242l3.898-7.791c.005-.01.004-.021.008-.029.028-.061.036-.127.052-.191.016-.066.038-.13.04-.196 0-.011.006-.02.006-.03V6.002a1 1 0 0 0-1-1H57V5c0-2.757-2.243-5-5-5H21.997c-2.757 0-5 2.243-5 5v2H7.996c-2.757 0-5 2.243-5 5l.001.004-.001.004V41.01c0 2.757 2.243 5 5 5zm2.002-32.002h6.999v24.996H9.998V14.008zm2.506 36.99c-.275 0-.5-.225-.5-.5s.225-.5.5-.5h4.493v1h-4.493zM54.999 62H19.005a1 1 0 0 1-1-1v-2H55.99l.009.002V61a1 1 0 0 1-1 1zm.106-46.441a1.002 1.002 0 0 0-.105.447V57H18.997v-7.978c0-.009.005-.016.005-.024s-.005-.016-.005-.024v-8.955l.003-.015-.003-.015V7.002h40.007v.766l-3.899 7.791zM21.997 2H52c1.654 0 3 1.346 3 3v.002H18.997V5c0-1.654 1.346-3 3-3zM7.996 9h9.001v3.008H8.998a1 1 0 0 0-1 1v26.996a1 1 0 0 0 1 1h7.999v3.006H7.996c-1.654 0-3-1.346-3-3V12.008l-.001-.004.001-.004c0-1.654 1.346-3 3-3z"/></svg>