<svg xmlns="http://www.w3.org/2000/svg" viewBox="0 0 64 64" fill="#1b1b1e" xmlns:v="https://vecta.io/nano"><path d="M57.51 28.52L33 12.455V9.899A5 5 0 1 0 27 5a1 1 0 0 0 2 0 3 3 0 1 1 3 3 1 1 0 0 0-1 1v3.455L6.49 28.52A2.44 2.44 0 0 0 7.83 33H16v-2H7.83a.437.437 0 0 1-.24-.81L32 14.2l24.41 15.99a.413.413 0 0 1 .18.5.407.407 0 0 1-.42.31H46v-1a2.015 2.015 0 0 0-2-2 2.006 2.006 0 0 0-2 2v3h14.17a2.44 2.44 0 0 0 1.34-4.48zM18 63a1.003 1.003 0 0 0 1 1h20a1.003 1.003 0 0 0 1-1v-3H18zm0-7h22v2H18zm4-30a4 4 0 0 0-4 4v24h22V30a4 4 0 0 1 4-4zm20 20h3a1 1 0 0 0 1-1V35h-4z"/></svg>