<svg xmlns="http://www.w3.org/2000/svg" viewBox="0 0 64 64" xmlns:v="https://vecta.io/nano"><path d="M54.309 9.136A1 1 0 0 0 53.4 9l-8.764 3L20.8 8.958l-.13-.008a11.4 11.4 0 0 0-4.464 21.881l1.2 18.954c.19 2.986 3.135 5.266 6.678 5.266l.525-.017a7.617 7.617 0 0 0 4.655-1.894 5.234 5.234 0 0 0 1.825-4.225l-1.13-17.878 14.66-1.12 8.793 2.929a.977.977 0 0 0 .316.052 1 1 0 0 0 1-1V9.95a1 1 0 0 0-.419-.814zm-43.036 11.21a9.407 9.407 0 0 1 9.335-9.4L43.744 13.9v14.077l-23.111 1.767a9.408 9.408 0 0 1-9.36-9.398zM29.1 49.043a3.274 3.274 0 0 1-1.177 2.619 5.613 5.613 0 0 1-3.434 1.376c-2.692.173-4.952-1.348-5.081-3.38L18.251 31.48a11.38 11.38 0 0 0 2.419.264h.038l7.256-.555zm23.628-18.534l-6.984-2.326V13.735l6.984-2.387zM29.812 20.346a8.307 8.307 0 1 0-8.307 8.308 8.316 8.316 0 0 0 8.307-8.308zm-14.613 0a6.307 6.307 0 1 1 6.307 6.308 6.314 6.314 0 0 1-6.306-6.308zm8.928 30.186a2.862 2.862 0 1 0-2.862-2.862 2.866 2.866 0 0 0 2.862 2.862zm0-3.725a.862.862 0 1 1-.862.862.863.863 0 0 1 .862-.862z"/></svg>