<svg xmlns="http://www.w3.org/2000/svg" viewBox="0 0 512 512" xmlns:v="https://vecta.io/nano"><path d="M256 73.825a182.18 182.18 0 0 0-182.18 182.18c0 100.617 81.567 182.171 182.18 182.171a182.175 182.175 0 1 0 0-364.351zm76.636 161.579h-12.037v91.503a18.908 18.908 0 0 1-18.896 18.904h-26.78v-53.56a6.299 6.299 0 0 0-6.297-6.294h-36.225a6.3 6.3 0 0 0-6.302 6.294v53.56h-26.771a18.911 18.911 0 0 1-18.905-18.904v-91.503h-11.97a7.879 7.879 0 0 1-5.071-13.905l82.055-69.038a7.89 7.89 0 0 1 10.142 0l81.479 68.547a7.88 7.88 0 0 1-4.421 14.396z"/></svg>