<svg xmlns="http://www.w3.org/2000/svg" xmlns:xlink="http://www.w3.org/1999/xlink" width="64" height="64" xmlns:v="https://vecta.io/nano"><path d="M3.002 23.988H21a1 1 0 0 0 1-1V20h20v2.988a1 1 0 0 0 1 1h17.998a1 1 0 0 0 1-1V1a1 1 0 0 0-1-1H43a1 1 0 0 0-1 1v10.542c-1.06-.951-2.455-1.536-3.987-1.54L37.002 10V1a1 1 0 0 0-1-1H28a1 1 0 0 0-1 1v9h-.998c-1.538 0-2.938.586-4.002 1.542V1a1 1 0 0 0-1-1H3.002a1 1 0 0 0-1 1v21.988a1 1 0 0 0 1 1zM22 18v-.999h20V18H22zM44 2h15.998v19.988H44V2zM29 2h6.002v8H29V2zm-2.998 10H37.99a4 4 0 0 1 3.867 3.001H22.142C22.59 13.28 24.143 12 26.002 12zm-22-10H20v19.988H4.002V2zm-1 62H21h22 17.998a1 1 0 0 0 1-1V41.004a1 1 0 0 0-1-1H60v-2.002a1 1 0 0 0-1-1h-2.002V37a1 1 0 1 0-2 0v.002h-2v-5a1 1 0 1 0-2 0v5h-2V37a1 1 0 1 0-2 0v.002h-2a1 1 0 0 0-1 1v2.002h-.978c-.007 0-.013-.004-.02-.004h-2v-2.997a1 1 0 1 0 0-2h-.141c-.362-1.402-1.46-2.501-2.861-2.865v-.136a1 1 0 1 0-2 0v.14c-1.399.364-2.495 1.461-2.857 2.861H33a1 1 0 1 0 0 2V40h-2v-2a1 1 0 0 0-1-1h-6-4a1 1 0 1 0 0 2h3v1h-2c-.007 0-.013.004-.02.004H3.002a1 1 0 0 0-1 1V63a1 1 0 0 0 1 1zm1-10.994H20V62H4.002v-8.994zM23.98 42c.007 0 .013.004.02.004s.013-.004.02-.004h5.961c.007 0 .013.004.02.004l3.98-.004c.007 0 .013.004.02.004l5.98-.004c.007 0 .013.004.02.004L42 42v20H22V42h1.98zm36.018 20H44V42.004h15.998V62zm-14-22.998H58v1.002H45.998v-1.002zm-9-5.002c.747.002 1.382.408 1.727 1.003h-3.449A1.99 1.99 0 0 1 36.998 34zM35 37.003h4V40h-4v-2.997zM25 39h4v1h-4v-1zm-5 3.004v9.002H4.002v-9.002H20zM45.998 50a1 1 0 0 0-1 1v2.008a1 1 0 1 0 2 0V51a1 1 0 0 0-1-1z"/><path d="M45.998 14.004a1 1 0 0 0 1-1v-2.008a1 1 0 1 0-2 0v2.008a1 1 0 0 0 1 1zM5.996 9.996a1 1 0 0 0-1 1v2.008a1 1 0 1 0 2 0v-2.008a1 1 0 0 0-1-1zm5 34.996h2a1 1 0 1 0 0-2h-2a1 1 0 1 0 0 2zm2 9.006h-2a1 1 0 1 0 0 2h2a1 1 0 1 0 0-2zM24 61h16.002a1 1 0 0 0 1-1V47.001a1 1 0 0 0-1-1H24a1 1 0 0 0-1 1V60a1 1 0 0 0 1 1zm1-12.999h14.002V59H25V48.001zM24.022 45a1 1 0 1 0 0-2h-.011c-.552 0-.994.447-.994 1s.453 1 1.005 1zm4.008 0a1 1 0 1 0 0-2h-.01c-.552 0-.994.447-.994 1s.452 1 1.004 1zm8.012 0a1 1 0 1 0 0-2h-.011c-.552 0-.994.447-.994 1s.452 1 1.005 1zm4.008 0a1 1 0 1 0 0-2h-.011c-.552 0-.994.447-.994 1s.452 1 1.005 1z"/><use xlink:href="#B"/><use xlink:href="#B" x="6"/><use xlink:href="#B" x="11.998"/><defs ><path id="B" d="M25.107 27.447a1 1 0 0 0 1.343.446 1.89 1.89 0 0 0 .929-1.183c.183-.688-.001-1.451-.545-2.267-.232-.348-.271-.542-.275-.613a1 1 0 0 0-1.003-1.726c-.119.06-.721.395-.931 1.182-.183.688.001 1.451.545 2.267.233.351.271.545.275.615a1 1 0 0 0-.338 1.279z"/></defs></svg>