<svg xmlns="http://www.w3.org/2000/svg" viewBox="0 0 64 64"><path d="M15.65 38.06 23 35.3V9.44L9 14.69v39.87l14-5.25V37.45l-6.65 2.49A1 1 0 0 1 16 40a1 1 0 0 1-.35-1.94zM15 36v-5a.88.88 0 0 1 0-.17 3 3 0 1 1 2 0 .88.88 0 0 1 0 .17v5a1 1 0 0 1-2 0zM41 14.69v25.86l6.65-2.49a1 1 0 0 1 .7 1.88L41 42.7v11.86l14-5.25V9.44zm7 21.45s-5-2.27-5-7.21a5 5 0 0 1 10 0c0 4.94-5 7.21-5 7.21zM39 42.7v11.86l-14-5.25V37.45l14 5.25zM39 14.69v25.86L25 35.3V9.44l14 5.25z"/><path d="M50 29a2 2 0 1 1-2-2 2 2 0 0 1 2 2z"/><path d="M48 27a2 2 0 1 0 2 2 2 2 0 0 0-2-2z"/></svg>