<svg xmlns="http://www.w3.org/2000/svg" viewBox="0 0 512 512" xmlns:v="https://vecta.io/nano"><path d="M421.174 366.475L318.572 251.132a9.428 9.428 0 0 0-7.041-3.169l-43.312-.082V191.37h18.551a9.45 9.45 0 0 0 5.5-17.133l-94.437-67.621a9.448 9.448 0 0 0-11.004 0L92.386 174.23a9.45 9.45 0 0 0 5.5 17.133h18.547v215.788h18.9V298.445h7.419v108.707h18.9V381.57h61.346v25.582h18.9V298.445h7.419v108.707h18.9V299.856h24.113l89.995 101.184a9.45 9.45 0 0 0 6.508 3.153l.552.016a9.455 9.455 0 0 0 6.281-2.391l24.728-22a9.45 9.45 0 0 0 .781-13.343zM135.333 191.364h113.983v88.181h-16.869v-24.63a40.122 40.122 0 1 0-80.243 0v24.63h-16.868v-88.181zm26.321 171.306v-23.707h61.347v23.707zm61.343-42.607h-61.343v-21.616h61.347v21.615zm167.168 61.353l-86.53-97.291a9.449 9.449 0 0 0-7.06-3.169h-27.213v-14.175l37.901.069 93.507 105.128z"/></svg>