<svg xmlns="http://www.w3.org/2000/svg" xmlns:xlink="http://www.w3.org/1999/xlink" viewBox="0 0 128 128" xmlns:v="https://vecta.io/nano"><path d="M92.307 48.515a1.75 1.75 0 0 0 1.75-1.75V44.09a1.75 1.75 0 0 0-3.5 0v2.675a1.75 1.75 0 0 0 1.75 1.75zm3.258 3.453h2.675a1.75 1.75 0 0 0 0-3.5h-2.675a1.75 1.75 0 0 0 0 3.5zm-3.454-.241a1.75 1.75 0 0 0-1.75 1.75v2.676a1.75 1.75 0 0 0 3.5 0v-2.676a1.75 1.75 0 0 0-1.75-1.75zm-5.933.046h2.675a1.75 1.75 0 0 0 0-3.5h-2.675a1.75 1.75 0 0 0 0 3.5zm9.655-33.448H32.167a9.823 9.823 0 0 0-9.812 9.812v15.836c0-.026.008-.05.011-.076-.737 6.64-4.173 10.075-10.813 10.813a1.75 1.75 0 0 0 0 3.479c6.641.738 10.076 4.174 10.813 10.814 0-.026-.008-.05-.011-.076v30.936a9.823 9.823 0 0 0 9.812 9.812h63.666a9.823 9.823 0 0 0 9.812-9.812V28.137a9.823 9.823 0 0 0-9.812-9.812zm-69.978 9.812a6.318 6.318 0 0 1 6.312-6.312h63.666a6.318 6.318 0 0 1 6.312 6.312v8.083h-76.29zm-7.7 28.313a13.058 13.058 0 0 0 5.95-5.95 13.074 13.074 0 0 0 5.955 5.954 13.067 13.067 0 0 0-5.955 5.946 13.06 13.06 0 0 0-5.954-5.951zm83.993 43.414a6.318 6.318 0 0 1-6.312 6.312H32.167a6.318 6.318 0 0 1-6.312-6.312V68.927c.757-6.588 4.19-10 10.8-10.738a1.75 1.75 0 0 0 0-3.479c-6.613-.735-10.047-4.149-10.8-10.737V39.72h76.289zM64 100.03a27.083 27.083 0 1 0-27.083-27.083A27.114 27.114 0 0 0 64 100.03zm0-50.667a23.583 23.583 0 1 1-23.583 23.584A23.61 23.61 0 0 1 64 49.363zM44.1 78.576c0 .015 0 .03.007.044s.013.037.018.055l.417 1.263.183.5q.226.579.485 1.139l.254.526.571 1.084.257.423a20.8 20.8 0 0 0 2.771 3.629l.025.028 1.05 1.009.214.195 1.109.908.208.155 1.232.857.014.009a20.612 20.612 0 0 0 4.161 2.031l.377.138 1.1.327.758.2.952.2 1.071.164.753.095 1.912.1a20.721 20.721 0 0 0 20.7-20.7c0-.626-.038-1.247-.095-1.866l-.061-.566q-.081-.679-.207-1.35l-.1-.53q-.178-.831-.424-1.644l-.223-.666-.371-1.011-.307-.736-.471-.976-.446-.839-.618-1.035c-.009-.014-.024-.022-.033-.036A20.668 20.668 0 0 0 44.1 78.576zM64 90.145c-.522 0-1.037-.033-1.547-.078l-.541-.061-.955-.146-.646-.123-.787-.2-1.413-.449-.375-.138q-.484-.191-.954-.411l-.244-.118a17.362 17.362 0 0 1-2.966-1.827l-.075-.056-.873-.725-.152-.138a17.313 17.313 0 0 1-2.245-2.475l-.211-.282-.544-.81-.228-.375-.49-.859h0q-.291-.558-.542-1.14c13.64-1.153 19.418-5.97 24.548-10.245a33.349 33.349 0 0 1 6.434-4.575c.19.358.365.725.53 1.1.081.182.157.367.231.552a17.26 17.26 0 0 1 .377 1.028 17.08 17.08 0 0 1 .164.531q.16.544.284 1.1l.093.428c.09.463.163.931.215 1.406l.031.333c.046.514.079 1.032.079 1.558A17.217 17.217 0 0 1 64 90.145zm0-34.395a17.168 17.168 0 0 1 13.242 6.239 38.166 38.166 0 0 0-6.724 4.811c-4.817 4.016-10.279 8.536-23.383 9.494A17.18 17.18 0 0 1 64 55.75z"/><use xlink:href="#B"/><path d="M34.627 22.882a6.141 6.141 0 1 0 6.14 6.141 6.148 6.148 0 0 0-6.14-6.141zm0 8.781a2.641 2.641 0 1 1 2.64-2.641 2.644 2.644 0 0 1-2.64 2.641z"/><use xlink:href="#B" x="-43.777"/><path d="M79.53,24.329H68.923a3.947,3.947,0,0,0,0,7.894H79.53a3.947,3.947,0,0,0,0-7.894Zm0,4.394H68.923a.447.447,0,0,1,0-.894H79.53a.447.447,0,0,1,0,.894Z"/><defs ><path id="B" d="M92.209 22.882a6.141 6.141 0 1 0 6.141 6.141 6.148 6.148 0 0 0-6.141-6.141zm0 8.781a2.641 2.641 0 1 1 2.641-2.641 2.644 2.644 0 0 1-2.641 2.641z"/></defs></svg>