<svg xmlns="http://www.w3.org/2000/svg" viewBox="0 0 32 32" xmlns:v="https://vecta.io/nano"><path d="M16 20a3.5 3.5 0 1 0 3.5 3.5A3.5 3.5 0 0 0 16 20zm0 5a1.5 1.5 0 1 1 1.5-1.5A1.5 1.5 0 0 1 16 25zm0-10a9.32 9.32 0 0 0-7.9 4.47 1.002 1.002 0 1 0 1.7 1.06 7.23 7.23 0 0 1 12.41 0 1 1 0 0 0 1.69-1.07A9.32 9.32 0 0 0 16 15zm0-4.82a14 14 0 0 0-10.83 5.18 1 1 0 1 0 1.54 1.28 11.93 11.93 0 0 1 18.57 0 1 1 0 1 0 1.53-1.28A14.05 14.05 0 0 0 16 10.18zm13.72 1.1a18.86 18.86 0 0 0-27.45 0A1 1 0 0 0 3 13a1 1 0 0 0 .72-.31 16.85 16.85 0 0 1 24.55 0 1 1 0 0 0 1.41 0 1 1 0 0 0 .04-1.41z"/></svg>