<svg xmlns="http://www.w3.org/2000/svg" width="32" height="32" style="shape-rendering:geometricPrecision;text-rendering:geometricPrecision;image-rendering:optimizeQuality;fill-rule:evenodd;clip-rule:evenodd"><path style="opacity:.984" fill="#fff" d="M31.5 17.5v14h-5v-3h-22v3h-5v-14c.983-3.798 1.317-7.798 1-12h30c-.317 4.202.017 8.202 1 12zm-29-10h26a24.939 24.939 0 0 1-.5 7 8.434 8.434 0 0 1-.5-4h-24a8.434 8.434 0 0 1-.5 4 24.936 24.936 0 0 1-.5-7zm5 8c5.344-.166 10.677 0 16 .5 3.94.438 5.94 2.604 6 6.5h-28c.246-3.909 2.246-6.242 6-7zm-6 9h28c.16 1.7-.006 3.366-.5 5-.318-1.56-1.15-2.728-2.5-3.5a121.244 121.244 0 0 0-22 0c-1.349.772-2.182 1.94-2.5 3.5-.494-1.634-.66-3.3-.5-5z"/></svg>