<svg xmlns="http://www.w3.org/2000/svg" width="128" height="128"><path fill="#fff" d="M115.621 72.354h-1.99v-3.076a13.151 13.151 0 0 0-11.549-13.032V32.818a6.271 6.271 0 0 0-6.263-6.263H34.511a6.271 6.271 0 0 0-6.263 6.263v23.429A13.15 13.15 0 0 0 16.7 69.278v3.076h-1.99a1.75 1.75 0 0 0-1.75 1.75v13.541a1.751 1.751 0 0 0 1.75 1.75h3.6V99.7a1.75 1.75 0 0 0 1.75 1.75h8.161a1.751 1.751 0 0 0 1.75-1.75V89.4H99.2v10.3a1.75 1.75 0 0 0 1.75 1.75h9.322a1.75 1.75 0 0 0 1.75-1.75V89.4h3.6a1.751 1.751 0 0 0 1.75-1.75V74.1a1.75 1.75 0 0 0-1.751-1.746zM31.748 32.818a2.766 2.766 0 0 1 2.763-2.763h61.308a2.767 2.767 0 0 1 2.763 2.763v23.323h-6.21V42.074a1.75 1.75 0 0 0-1.75-1.75H70.146a1.75 1.75 0 0 0-1.75 1.75v14.067h-6.462V42.074a1.75 1.75 0 0 0-1.75-1.75H39.708a1.75 1.75 0 0 0-1.75 1.75v14.067h-6.21zm57.124 23.323H71.9V43.824h16.972zm-30.438 0H41.458V43.824h16.976zM20.2 69.278a9.648 9.648 0 0 1 9.638-9.637h70.656a9.648 9.648 0 0 1 9.638 9.637v3.076H20.2zm6.269 28.667h-4.662V89.4h4.661zm82.055 0H102.7V89.4h5.822zm5.348-12.05H16.459V75.854h97.412z"/></svg>
