<svg xmlns="http://www.w3.org/2000/svg" viewBox="0 0 32 32"><defs><style>.cls-1{fill:#fff;}</style></defs><g id="shower"><path class="cls-1" d="M29.89,12.11a1,1,0,0,0-1.35-.43l-.91.47h0a8.14,8.14,0,0,0-10.9-3.4l-.3.17L13.34,3.78A3.72,3.72,0,0,0,10.15,2H4.77A2.74,2.74,0,0,0,2,4.71V9A1,1,0,0,0,4,9V4.71A.74.74,0,0,1,4.77,4h5.38a1.73,1.73,0,0,1,1.48.81l3.43,5.71a.92.92,0,0,0,.25.27s0,.06,0,.08a1,1,0,0,0,1.4.2l.33-.23a3.86,3.86,0,0,1,.56-.32,6.13,6.13,0,0,1,8.21,2.54L15.06,18.61h0a5.91,5.91,0,0,1-.16-5.19,1,1,0,0,0-1.83-.82,7.91,7.91,0,0,0,.22,6.94l-.9.46a1,1,0,0,0,.46,1.89,1.11,1.11,0,0,0,.46-.11l11.49-5.92,2.87-1.47h0l1.8-.92A1,1,0,0,0,29.89,12.11Z"/><path class="cls-1" d="M18.76,21.55a1,1,0,0,0-1.79.9l.51,1a1,1,0,0,0,.89.55.91.91,0,0,0,.45-.11,1,1,0,0,0,.44-1.34Z"/><path class="cls-1" d="M26.47,20a.91.91,0,0,0,.45-.11,1,1,0,0,0,.44-1.34l-.5-1a1,1,0,0,0-1.35-.44,1,1,0,0,0-.44,1.34l.51,1A1,1,0,0,0,26.47,20Z"/><path class="cls-1" d="M23.82,20.55a1,1,0,0,0-1.79.9l.51,1a1,1,0,0,0,.89.55.91.91,0,0,0,.45-.11,1,1,0,0,0,.44-1.34Z"/><path class="cls-1" d="M23.31,24.55a1,1,0,0,0-1.78.9l.5,1a1,1,0,0,0,.9.55.93.93,0,0,0,.45-.11,1,1,0,0,0,.44-1.34Z"/><path class="cls-1" d="M28.37,23.55a1,1,0,0,0-1.78.9l.51,1A1,1,0,0,0,28,26a.93.93,0,0,0,.45-.11,1,1,0,0,0,.44-1.34Z"/><path class="cls-1" d="M27.36,27.55a1,1,0,0,0-1.78.9l.5,1A1,1,0,0,0,27,30a.93.93,0,0,0,.45-.11,1,1,0,0,0,.44-1.34Z"/></g></svg>
