<svg xmlns="http://www.w3.org/2000/svg" viewBox="0 0 128 128" style="enable-background:new 0 0 128 128" xml:space="preserve"><g fill="#fff"><path fill="#fff" d="M7.076 50.655v75.443h80.565V50.655H7.076zm16.483 37.721c0-13.149 10.651-23.8 23.799-23.8 12.261 0 22.341 9.256 23.647 21.162h.735c.431 0 .85.101 1.204.292.85.431 1.433 1.319 1.433 2.346s-.583 1.915-1.433 2.346c-.355.19-.773.292-1.204.292h-.735c-1.306 11.906-11.386 21.162-23.647 21.162-13.148 0-23.799-10.651-23.799-23.8z"/><path fill="#fff" d="M90.177 0v2.536c16.597 0 30.114 13.504 30.114 30.101h2.536C122.826 14.645 108.182 0 90.177 0zm0 19.958v2.536c5.592 0 10.144 4.552 10.144 10.144h2.536c-.001-6.987-5.694-12.68-12.68-12.68zm0-9.979v2.536c11.095 0 20.122 9.028 20.122 20.122h2.536c0-12.489-10.156-22.658-22.658-22.658zM72.552 83.267c-2.384-11.741-12.768-20.592-25.194-20.592-14.176 0-25.701 11.526-25.701 25.701s11.526 25.701 25.701 25.701c12.426 0 22.81-8.85 25.194-20.592a5.182 5.182 0 0 0 4.362-5.11 5.18 5.18 0 0 0-4.362-5.108zM60.697 93.55h1.636c-2.143 6.2-8.051 10.676-14.974 10.676-8.736 0-15.849-7.113-15.849-15.849s7.113-15.849 15.849-15.849c6.923 0 12.832 4.476 14.974 10.676h-1.636c-2.853 0-5.173 2.32-5.173 5.173s2.32 5.173 5.173 5.173zM47.358 69.991c-10.144 0-18.385 8.242-18.385 18.385s8.242 18.385 18.385 18.385c8.343 0 15.406-5.579 17.637-13.212h3.639c-2.333 9.586-10.993 16.724-21.276 16.724-12.071 0-21.897-9.827-21.897-21.898s9.827-21.898 21.897-21.898c10.283 0 18.943 7.139 21.276 16.724h-3.639c-2.231-7.631-9.294-13.21-17.637-13.21zm25.587 20.731c-.355.19-.773.292-1.204.292H60.697a2.635 2.635 0 0 1-2.637-2.637 2.635 2.635 0 0 1 2.637-2.637h11.044c.431 0 .85.101 1.204.292.85.431 1.433 1.319 1.433 2.346s-.583 1.913-1.433 2.344zM65.3 38.609a2.535 2.535 0 1 0 2.536 2.536 2.544 2.544 0 0 0-2.536-2.536zm11.411-1.268a3.799 3.799 0 0 0-3.804 3.804 3.799 3.799 0 0 0 3.804 3.804 3.807 3.807 0 0 0 3.804-3.804 3.807 3.807 0 0 0-3.804-3.804zm-61.343 1.902v3.804h19.019v-3.804H15.368zm57.184 44.024c-2.384-11.741-12.768-20.592-25.194-20.592-14.176 0-25.701 11.526-25.701 25.701s11.526 25.701 25.701 25.701c12.426 0 22.81-8.85 25.194-20.592a5.182 5.182 0 0 0 4.362-5.11 5.18 5.18 0 0 0-4.362-5.108zM60.697 93.55h1.636c-2.143 6.2-8.051 10.676-14.974 10.676-8.736 0-15.849-7.113-15.849-15.849s7.113-15.849 15.849-15.849c6.923 0 12.832 4.476 14.974 10.676h-1.636c-2.853 0-5.173 2.32-5.173 5.173s2.32 5.173 5.173 5.173zM47.358 69.991c-10.144 0-18.385 8.242-18.385 18.385s8.242 18.385 18.385 18.385c8.343 0 15.406-5.579 17.637-13.212h3.639c-2.333 9.586-10.993 16.724-21.276 16.724-12.071 0-21.897-9.827-21.897-21.898s9.827-21.898 21.897-21.898c10.283 0 18.943 7.139 21.276 16.724h-3.639c-2.231-7.631-9.294-13.21-17.637-13.21zm25.587 20.731c-.355.19-.773.292-1.204.292H60.697a2.635 2.635 0 0 1-2.637-2.637 2.635 2.635 0 0 1 2.637-2.637h11.044c.431 0 .85.101 1.204.292.85.431 1.433 1.319 1.433 2.346s-.583 1.913-1.433 2.344zm3.766-53.381a3.799 3.799 0 0 0-3.804 3.804 3.799 3.799 0 0 0 3.804 3.804 3.807 3.807 0 0 0 3.804-3.804 3.807 3.807 0 0 0-3.804-3.804zM65.3 38.609a2.535 2.535 0 1 0 2.536 2.536 2.544 2.544 0 0 0-2.536-2.536zm-49.932 4.438h19.019v-3.804H15.368v3.804zm72.273-13.313H7.076a1.9 1.9 0 0 0-1.902 1.902v94.463a1.9 1.9 0 0 0 1.902 1.902h80.565a1.9 1.9 0 0 0 1.902-1.902V31.635a1.9 1.9 0 0 0-1.902-1.901zM8.978 33.537h76.761v15.215H8.978V33.537zm76.761 90.659H8.978V52.557h76.761v71.639zm-9.028-86.855a3.799 3.799 0 0 0-3.804 3.804 3.799 3.799 0 0 0 3.804 3.804 3.807 3.807 0 0 0 3.804-3.804 3.807 3.807 0 0 0-3.804-3.804zm-29.353 76.737c12.426 0 22.81-8.85 25.194-20.592a5.182 5.182 0 0 0 4.362-5.11 5.182 5.182 0 0 0-4.362-5.11c-2.384-11.741-12.768-20.592-25.194-20.592-14.176 0-25.701 11.526-25.701 25.701s11.526 25.703 25.701 25.703zm0-47.599c10.283 0 18.943 7.139 21.276 16.724h-3.639c-2.232-7.633-9.294-13.212-17.637-13.212-10.144 0-18.385 8.242-18.385 18.385s8.242 18.385 18.385 18.385c8.343 0 15.406-5.579 17.637-13.212h3.639c-2.333 9.586-10.993 16.724-21.276 16.724-12.071 0-21.897-9.827-21.897-21.898 0-12.07 9.826-21.896 21.897-21.896zM60.697 93.55h1.636c-2.143 6.2-8.051 10.676-14.974 10.676-8.736 0-15.849-7.113-15.849-15.849s7.113-15.849 15.849-15.849c6.923 0 12.832 4.476 14.974 10.676h-1.636c-2.853 0-5.173 2.32-5.173 5.173s2.32 5.173 5.173 5.173zm11.044-7.811c.431 0 .85.101 1.204.292.85.431 1.433 1.319 1.433 2.346s-.583 1.915-1.433 2.346c-.355.19-.773.292-1.204.292H60.697a2.635 2.635 0 0 1-2.637-2.637 2.635 2.635 0 0 1 2.637-2.637h11.044zM65.3 38.609a2.535 2.535 0 1 0 2.536 2.536 2.544 2.544 0 0 0-2.536-2.536zm-49.932 4.438h19.019v-3.804H15.368v3.804z"/></g></svg>
